<svg width="1726" height="897" viewBox="0 0 1726 897" fill="none" xmlns="http://www.w3.org/2000/svg">
<rect width="1726" height="897" fill="#E5E5E5"/>
<rect width="1280" height="720" transform="translate(446)" fill="white"/>
<path d="M1157.27 265.536C1149.57 248.212 1138.38 232.663 1124.4 219.861L1112.86 209.275C1112.47 208.925 1112 208.677 1111.49 208.552C1110.98 208.428 1110.45 208.43 1109.94 208.559C1109.43 208.688 1108.96 208.94 1108.57 209.293C1108.18 209.646 1107.89 210.089 1107.71 210.583L1102.56 225.372C1099.34 234.65 1093.44 244.126 1085.07 253.443C1084.52 254.038 1083.88 254.197 1083.44 254.236C1083.01 254.276 1082.33 254.197 1081.74 253.642C1081.18 253.166 1080.91 252.452 1080.95 251.738C1082.41 227.87 1075.28 200.949 1059.66 171.649C1046.73 147.304 1028.77 128.313 1006.33 115.07L989.954 105.436C987.813 104.167 985.077 105.832 985.196 108.33L986.068 127.361C986.663 140.366 985.156 151.864 981.588 161.419C977.227 173.116 970.962 183.979 962.953 193.733C957.379 200.511 951.062 206.642 944.12 212.011C927.401 224.863 913.805 241.332 904.353 260.184C894.923 279.199 890.012 300.136 890 321.361C890 340.075 893.687 358.194 900.983 375.283C908.027 391.736 918.192 406.668 930.917 419.253C943.763 431.941 958.671 441.932 975.284 448.87C992.491 456.086 1010.73 459.734 1029.56 459.734C1048.4 459.734 1066.63 456.086 1083.84 448.91C1100.41 442.012 1115.48 431.952 1128.21 419.293C1141.05 406.605 1151.12 391.777 1158.14 375.323C1165.43 358.281 1169.16 339.934 1169.13 321.401C1169.13 302.052 1165.16 283.259 1157.27 265.536V265.536ZM1109.26 400.063C1087.96 421.156 1059.7 432.733 1029.56 432.733C999.43 432.733 971.16 421.156 949.869 400.063C928.657 379.01 916.961 351.097 916.961 321.401C916.961 304.154 920.846 287.62 928.499 272.237C935.953 257.21 947.054 243.769 960.535 233.421C969.132 226.847 976.93 219.289 983.769 210.9C993.681 198.808 1001.45 185.327 1006.84 170.856C1009.06 164.886 1010.66 158.71 1011.64 152.419C1021.2 161.221 1029.21 171.847 1035.91 184.296C1049.15 209.116 1055.25 231.2 1054.07 249.994C1053.78 254.42 1054.5 258.853 1056.18 262.96C1057.86 267.066 1060.44 270.74 1063.74 273.704C1066.6 276.287 1069.94 278.276 1073.58 279.555C1077.21 280.835 1081.06 281.379 1084.91 281.158C1092.72 280.761 1099.9 277.312 1105.13 271.483C1110.41 265.576 1114.97 259.549 1118.77 253.404C1124.32 260.501 1128.96 268.232 1132.65 276.558C1138.95 290.752 1142.16 305.858 1142.16 321.401C1142.16 351.097 1130.47 379.05 1109.26 400.063Z" fill="black"/>
</svg>
