<svg width="1726" height="897" viewBox="0 0 1726 897" fill="none" xmlns="http://www.w3.org/2000/svg">
<rect width="1726" height="897" fill="#E5E5E5"/>
<rect width="1280" height="720" transform="translate(446)" fill="white"/>
<g clip-path="url(#clip0_0_1)">
<path d="M612 154.844C612 149.747 614.025 144.858 617.629 141.254C621.233 137.65 626.122 135.625 631.219 135.625H746.531C751.628 135.625 756.517 137.65 760.121 141.254C763.725 144.858 765.75 149.747 765.75 154.844V174.062H778.819C781.698 174.065 784.54 174.715 787.135 175.963C789.73 177.212 792.011 179.027 793.809 181.276L812.785 204.979C815.515 208.39 817.002 212.628 817 216.997V244.531C817 249.628 814.975 254.517 811.371 258.121C807.767 261.725 802.878 263.75 797.781 263.75H791.375C791.375 270.546 788.675 277.064 783.87 281.87C779.064 286.675 772.546 289.375 765.75 289.375C758.954 289.375 752.436 286.675 747.63 281.87C742.825 277.064 740.125 270.546 740.125 263.75H676.062C676.07 267.166 675.394 270.548 674.076 273.699C672.757 276.85 670.821 279.705 668.383 282.097C665.945 284.489 663.053 286.37 659.878 287.628C656.703 288.886 653.308 289.497 649.893 289.425C646.478 289.352 643.112 288.597 639.993 287.205C636.874 285.813 634.065 283.811 631.731 281.318C629.396 278.824 627.584 275.889 626.4 272.685C625.217 269.481 624.686 266.073 624.838 262.661C621.085 261.34 617.834 258.886 615.534 255.639C613.235 252.392 612 248.51 612 244.531V154.844ZM628.579 250.374C630.896 246.581 634.159 243.457 638.049 241.307C641.939 239.158 646.321 238.057 650.765 238.114C655.208 238.171 659.561 239.383 663.394 241.632C667.228 243.88 670.41 247.087 672.629 250.938H743.559C745.813 247.046 749.046 243.813 752.938 241.559V154.844C752.938 153.145 752.263 151.515 751.061 150.314C749.86 149.112 748.23 148.438 746.531 148.438H631.219C629.52 148.438 627.89 149.112 626.689 150.314C625.487 151.515 624.812 153.145 624.812 154.844V244.531C624.811 245.764 625.166 246.972 625.835 248.008C626.503 249.044 627.456 249.866 628.579 250.374ZM765.75 238.125C770.248 238.125 774.667 239.309 778.562 241.558C782.458 243.807 785.692 247.042 787.941 250.938H797.781C799.48 250.938 801.11 250.263 802.311 249.061C803.513 247.86 804.188 246.23 804.188 244.531V216.984C804.185 215.531 803.688 214.121 802.778 212.987L783.816 189.284C783.216 188.533 782.456 187.927 781.591 187.51C780.726 187.094 779.779 186.876 778.819 186.875H765.75V238.125ZM650.438 250.938C647.039 250.938 643.781 252.287 641.378 254.69C638.975 257.093 637.625 260.352 637.625 263.75C637.625 267.148 638.975 270.407 641.378 272.81C643.781 275.213 647.039 276.562 650.438 276.562C653.836 276.562 657.094 275.213 659.497 272.81C661.9 270.407 663.25 267.148 663.25 263.75C663.25 260.352 661.9 257.093 659.497 254.69C657.094 252.287 653.836 250.938 650.438 250.938ZM765.75 250.938C762.352 250.938 759.093 252.287 756.69 254.69C754.287 257.093 752.938 260.352 752.938 263.75C752.938 267.148 754.287 270.407 756.69 272.81C759.093 275.213 762.352 276.562 765.75 276.562C769.148 276.562 772.407 275.213 774.81 272.81C777.213 270.407 778.562 267.148 778.562 263.75C778.562 260.352 777.213 257.093 774.81 254.69C772.407 252.287 769.148 250.938 765.75 250.938Z" fill="black"/>
</g>
<defs>
<clipPath id="clip0_0_1">
<rect width="205" height="205" fill="white" transform="translate(612 110)"/>
</clipPath>
</defs>
</svg>
